<svg width="14" height="14" viewBox="0 0 14 14" fill="none" xmlns="http://www.w3.org/2000/svg">
<path fill-rule="evenodd" clip-rule="evenodd" d="M3.18516 10.7011C3.45709 10.973 3.784 11.109 4.16587 11.109H12.4976C12.8795 11.109 13.2064 10.973 13.4783 10.7011C13.7503 10.4291 13.8862 10.1022 13.8862 9.72037V1.38862C13.8862 1.00675 13.7503 0.679847 13.4783 0.407908C13.2064 0.135969 12.8795 0 12.4976 0H4.16587C3.784 0 3.45709 0.135969 3.18516 0.407908C2.91322 0.679847 2.77725 1.00675 2.77725 1.38862V9.72037C2.77725 10.1022 2.91322 10.4291 3.18516 10.7011ZM0.407908 13.4783C0.679847 13.7503 1.00675 13.8862 1.38862 13.8862H10.4147C10.6114 13.8862 10.7763 13.8197 10.9094 13.6866C11.0425 13.5535 11.109 13.3886 11.109 13.1919C11.109 12.9952 11.0425 12.8303 10.9094 12.6972C10.7763 12.5642 10.6114 12.4976 10.4147 12.4976H1.38862V3.47156C1.38862 3.27484 1.32209 3.10994 1.18901 2.97686C1.05593 2.84379 0.891034 2.77725 0.694312 2.77725C0.49759 2.77725 0.332691 2.84379 0.199615 2.97686C0.0665382 3.10994 0 3.27484 0 3.47156V12.4976C0 12.8795 0.135969 13.2064 0.407908 13.4783ZM12.2697 3.38424C12.4956 3.151 12.4897 2.77881 12.2564 2.55292C12.0232 2.32704 11.651 2.333 11.4251 2.56624L7.77182 6.33843L6.34252 5.06348C6.10022 4.84734 5.72859 4.86855 5.51245 5.11085C5.29632 5.35315 5.31753 5.72478 5.55982 5.94092L7.41022 7.5915C7.64552 7.80139 8.00451 7.78828 8.22388 7.56178L12.2697 3.38424Z" fill="white"/>
</svg>
