<svg width="14" height="14" viewBox="0 0 14 14" fill="none" xmlns="http://www.w3.org/2000/svg">
<path d="M8.33141 9.02569C8.52812 9.02569 8.6988 8.95337 8.84344 8.80873C8.98808 8.66408 9.0604 8.49341 9.0604 8.29669C9.0604 8.09998 8.98808 7.9293 8.84344 7.78466C8.6988 7.64002 8.52812 7.56769 8.33141 7.56769C8.13469 7.56769 7.96402 7.64002 7.81937 7.78466C7.67473 7.9293 7.60241 8.09998 7.60241 8.29669C7.60241 8.49341 7.67473 8.66408 7.81937 8.80873C7.96402 8.95337 8.13469 9.02569 8.33141 9.02569ZM8.33141 6.80398C8.45869 6.80398 8.5773 6.7577 8.68723 6.66513C8.79716 6.57255 8.86369 6.45105 8.88683 6.30063C8.90998 6.16177 8.95916 6.03448 9.03437 5.91877C9.10958 5.80306 9.24555 5.64684 9.44226 5.45013C9.7894 5.10299 10.0208 4.82238 10.1365 4.60831C10.2523 4.39424 10.3101 4.14256 10.3101 3.85328C10.3101 3.33256 10.1279 2.90731 9.76337 2.57753C9.39887 2.24774 8.92155 2.08285 8.33141 2.08285C7.94955 2.08285 7.60241 2.16964 7.28998 2.34321C6.97755 2.51678 6.72877 2.76556 6.54363 3.08956C6.4742 3.20528 6.46841 3.32678 6.52627 3.45406C6.58413 3.58135 6.68248 3.67392 6.82134 3.73178C6.94863 3.78963 7.07302 3.79542 7.19452 3.74913C7.31602 3.70285 7.41727 3.62185 7.49827 3.50613C7.60241 3.35571 7.72391 3.24288 7.86277 3.16767C8.00162 3.09246 8.15784 3.05485 8.33141 3.05485C8.60912 3.05485 8.83476 3.13296 9.00833 3.28917C9.1819 3.44538 9.26869 3.65656 9.26869 3.9227C9.26869 4.0847 9.2224 4.23802 9.12983 4.38267C9.03726 4.52731 8.87526 4.70956 8.64384 4.92942C8.30826 5.2187 8.09419 5.44145 8.00162 5.59766C7.90905 5.75388 7.85119 5.98241 7.82805 6.28327C7.81648 6.42213 7.85987 6.54363 7.95823 6.64777C8.05659 6.75191 8.18098 6.80398 8.33141 6.80398ZM4.1657 11.1085C3.78385 11.1085 3.45696 10.9726 3.18503 10.7007C2.9131 10.4287 2.77714 10.1018 2.77714 9.71997V1.38857C2.77714 1.00671 2.9131 0.67982 3.18503 0.407892C3.45696 0.135964 3.78385 0 4.1657 0H12.4971C12.879 0 13.2059 0.135964 13.4778 0.407892C13.7497 0.67982 13.8857 1.00671 13.8857 1.38857V9.71997C13.8857 10.1018 13.7497 10.4287 13.4778 10.7007C13.2059 10.9726 12.879 11.1085 12.4971 11.1085H4.1657ZM1.38857 13.8857C1.00671 13.8857 0.67982 13.7497 0.407892 13.4778C0.135964 13.2059 0 12.879 0 12.4971V3.47142C0 3.27471 0.0665355 3.10981 0.199607 2.97674C0.332678 2.84367 0.49757 2.77714 0.694284 2.77714C0.890998 2.77714 1.05589 2.84367 1.18896 2.97674C1.32203 3.10981 1.38857 3.27471 1.38857 3.47142V12.4971H10.4143C10.611 12.4971 10.7759 12.5636 10.9089 12.6967C11.042 12.8298 11.1085 12.9947 11.1085 13.1914C11.1085 13.3881 11.042 13.553 10.9089 13.6861C10.7759 13.8191 10.611 13.8857 10.4143 13.8857H1.38857Z" fill="white"/>
</svg>
