<svg width="15" height="15" viewBox="0 0 15 15" fill="none" xmlns="http://www.w3.org/2000/svg">
<path d="M7.38093 2.30666C6.28607 2.30666 5.2158 2.63133 4.30545 3.2396C3.39511 3.84787 2.68558 4.71243 2.2666 5.72395C1.84761 6.73547 1.73799 7.84852 1.95158 8.92234C2.16518 9.99617 2.69241 10.9825 3.46659 11.7567C4.24077 12.5309 5.22714 13.0581 6.30097 13.2717C7.37479 13.4853 8.48784 13.3757 9.49936 12.9567C10.5109 12.5377 11.3754 11.8282 11.9837 10.9179C12.592 10.0075 12.9166 8.93724 12.9166 7.84238C12.915 6.37473 12.3312 4.96767 11.2934 3.92989C10.2556 2.89211 8.84858 2.30834 7.38093 2.30666ZM10.0139 5.86221L7.70731 8.16875C7.66445 8.21161 7.61357 8.24561 7.55757 8.26881C7.50157 8.292 7.44155 8.30394 7.38093 8.30394C7.32032 8.30394 7.2603 8.292 7.2043 8.26881C7.1483 8.24561 7.09742 8.21161 7.05455 8.16875C7.01169 8.12589 6.9777 8.07501 6.9545 8.01901C6.9313 7.96301 6.91937 7.90299 6.91937 7.84238C6.91937 7.78176 6.9313 7.72174 6.9545 7.66574C6.9777 7.60974 7.01169 7.55886 7.05455 7.516L9.3611 5.20945C9.40396 5.16659 9.45485 5.13259 9.51085 5.1094C9.56685 5.0862 9.62687 5.07426 9.68748 5.07426C9.74809 5.07426 9.80811 5.0862 9.86411 5.1094C9.92011 5.13259 9.971 5.16659 10.0139 5.20945C10.0567 5.25231 10.0907 5.3032 10.1139 5.3592C10.1371 5.4152 10.149 5.47522 10.149 5.53583C10.149 5.59644 10.1371 5.65646 10.1139 5.71246C10.0907 5.76846 10.0567 5.81935 10.0139 5.86221ZM5.53569 0.922735C5.53569 0.800388 5.5843 0.683052 5.67081 0.59654C5.75732 0.510028 5.87466 0.461426 5.997 0.461426H8.76486C8.88721 0.461426 9.00454 0.510028 9.09106 0.59654C9.17757 0.683052 9.22617 0.800388 9.22617 0.922735C9.22617 1.04508 9.17757 1.16242 9.09106 1.24893C9.00454 1.33544 8.88721 1.38404 8.76486 1.38404H5.997C5.87466 1.38404 5.75732 1.33544 5.67081 1.24893C5.5843 1.16242 5.53569 1.04508 5.53569 0.922735Z" fill="white"/>
</svg>
