<svg width="14" height="14" viewBox="0 0 14 14" fill="none" xmlns="http://www.w3.org/2000/svg">
<path fill-rule="evenodd" clip-rule="evenodd" d="M4.16587 11.109C3.784 11.109 3.45709 10.973 3.18516 10.7011C2.91322 10.4291 2.77725 10.1022 2.77725 9.72037V1.38862C2.77725 1.00675 2.91322 0.679847 3.18516 0.407908C3.45709 0.135969 3.784 0 4.16587 0H12.4976C12.8795 0 13.2064 0.135969 13.4783 0.407908C13.7503 0.679847 13.8862 1.00675 13.8862 1.38862V9.72037C13.8862 10.1022 13.7503 10.4291 13.4783 10.7011C13.2064 10.973 12.8795 11.109 12.4976 11.109H4.16587ZM1.38862 13.8862C1.00675 13.8862 0.679847 13.7503 0.407908 13.4783C0.135969 13.2064 0 12.8795 0 12.4976V3.47156C0 3.27484 0.0665382 3.10994 0.199615 2.97686C0.332691 2.84379 0.49759 2.77725 0.694312 2.77725C0.891034 2.77725 1.05593 2.84379 1.18901 2.97686C1.32209 3.10994 1.38862 3.27484 1.38862 3.47156V12.4976H10.4147C10.6114 12.4976 10.7763 12.5642 10.9094 12.6972C11.0425 12.8303 11.109 12.9952 11.109 13.1919C11.109 13.3886 11.0425 13.5535 10.9094 13.6866C10.7763 13.8197 10.6114 13.8862 10.4147 13.8862H1.38862ZM5.53546 8.35126C5.30587 8.12167 5.30587 7.74943 5.53546 7.51984L7.59998 5.45532L5.53546 3.39081C5.30587 3.16122 5.30587 2.78898 5.53546 2.55939C5.76505 2.3298 6.13729 2.3298 6.36688 2.55939L8.4314 4.6239L10.4948 2.56047C10.7244 2.33088 11.0967 2.33088 11.3263 2.56047C11.5558 2.79006 11.5558 3.1623 11.3263 3.39188L9.26282 5.45532L11.3263 7.51876C11.5558 7.74835 11.5558 8.12059 11.3263 8.35018C11.0967 8.57977 10.7244 8.57977 10.4948 8.35018L8.4314 6.28674L6.36688 8.35126C6.13729 8.58085 5.76505 8.58085 5.53546 8.35126Z" fill="white"/>
</svg>
